<?xml version="1.0" encoding="utf-8"?>
<!-- Generator: Adobe Illustrator 17.1.0, SVG Export Plug-In . SVG Version: 6.00 Build 0)  -->
<!DOCTYPE svg PUBLIC "-//W3C//DTD SVG 1.1//EN" "http://www.w3.org/Graphics/SVG/1.1/DTD/svg11.dtd">
<svg version="1.1" xmlns="http://www.w3.org/2000/svg" xmlns:xlink="http://www.w3.org/1999/xlink" x="0px" y="0px"
	 viewBox="0 0 914 175" enable-background="new 0 0 914 175" xml:space="preserve">
<g id="_x35_">
</g>
<g id="_x34_">
</g>
<g id="_x33_">
</g>
<g id="_x32_">
</g>
<g id="_x31_" display="none">
	<g id="intro" display="inline">
	</g>
</g>
<g id="_x31__copy">
	<g id="intro_copy" display="none">
	</g>
	<g id="logo_6_">
		<g>
			<g>
				<path fill="#FFFFFF" d="M19.1,57.7H7v-8.9h35.4v8.9h-12v65.9H19.1V57.7z"/>
				<path fill="#FFFFFF" d="M54.3,48.7h10.9l5,45.3l0.6,10.6h1.1l1.1-11.9L81,48.7h9.1l7.7,43.9l0.9,11.9h1.1l0.5-10.6l4.6-45.3
					h10.9l-10.5,74.9H93.9l-6.2-36L85.7,72h-0.9L83,87.6l-6.5,36H65.1L54.3,48.7z"/>
				<path fill="#FFFFFF" d="M130.9,99.2V72.7c0-22.6,11.6-24.6,18.6-24.6c6.8,0,18.5,1.7,18.5,24.6v26.5c0,22.2-11.9,25-18.5,25
					C142.2,124.3,130.9,121.7,130.9,99.2z M156.1,103.7V69.6c0-9.6-2.2-12.6-6.6-12.6c-4.6,0-6.8,3-6.8,12.6v34.1
					c0,9.3,2.2,12.1,6.8,12.1C154,115.7,156.1,113,156.1,103.7z"/>
				<path fill="#FFFFFF" d="M222.8,57.7h-12.1v-8.9h35.4v8.9h-12v65.9h-11.4V57.7z"/>
				<path fill="#FFFFFF" d="M262.8,48.7h11.4v31.4h13.5V48.7H299v74.9h-11.4V89h-13.5v34.6h-11.4V48.7z"/>
				<path fill="#FFFFFF" d="M318.8,99.2V72.7c0-22.6,11.6-24.6,18.6-24.6c6.8,0,18.5,1.7,18.5,24.6v26.5c0,22.2-11.9,25-18.5,25
					C330.2,124.3,318.8,121.7,318.8,99.2z M344.1,103.7V69.6c0-9.6-2.1-12.6-6.6-12.6c-4.6,0-6.8,3-6.8,12.6v34.1
					c0,9.3,2.1,12.1,6.8,12.1C341.9,115.7,344.1,113,344.1,103.7z"/>
				<path fill="#FFFFFF" d="M375.4,48.7h11.4v54.9c0,9.3,1.8,12.1,6.3,12.1c4.5,0,6.6-2.8,6.6-12.1V48.7h11.3v51.9
					c0,22-11.4,23.7-17.9,23.7c-6.5,0-17.8-1.7-17.8-23.7V48.7z"/>
				<path fill="#FFFFFF" d="M430.8,99.6h8.8v3.6c0,8.1,1.8,12.5,7.4,12.5c4.3,0,6.7-2.5,6.7-7c0-4.6-1.1-7.5-5.3-12.8l-11.8-14.1
					c-4.2-5.3-6.6-10.7-6.6-16.9c0-10,6.3-17,17.2-17c13.2,0,17.1,8.3,17.1,15.9c0,3.2-0.6,5.7-1.2,8.9h-8.8v-3.6
					c0-7.9-2.1-12.3-7.3-12.3c-4.3,0-6.4,2.6-6.4,6.5c0,4.3,1.4,6.5,3.6,9.4l13.2,16c4.8,6.3,7.5,11.7,7.5,18.2
					c0,10.6-6.9,17.3-17.8,17.3c-13.5,0-17.4-7.9-17.4-15.9C429.7,105.3,430.1,102.7,430.8,99.6z"/>
				<path fill="#FFFFFF" d="M491.7,48.7h13.1l13.9,74.9h-11.5l-2.1-13.4h-13.7l-2,13.4h-11.5L491.7,48.7z M503.8,101.7l-5.3-37.3
					H498l-5.3,37.3H503.8z"/>
				<path fill="#FFFFFF" d="M534.9,48.7h9.2l18.2,50.1h0.3c-0.4-4.6-1.2-11.2-1.2-22.8V48.7h10.2v74.9h-9.3l-18.1-48.8h-0.4
					c0.4,5.3,1.2,11.6,1.2,26.8v22h-10.1V48.7z"/>
				<path fill="#FFFFFF" d="M593.3,48.7h11.8c10.8,0,24.6,0.6,24.6,26.6v21.7c0,26-13.8,26.6-24.6,26.6h-11.8V48.7z M607.5,115.7
					c8.2,0,10.3-3.6,10.3-17.7V74.7c0-14.1-2-17.7-10.3-17.7h-2.9v58.7H607.5z"/>
				<path fill="#FFFFFF" d="M683.9,57.7h-12.1v-8.9h35.4v8.9h-12v65.9h-11.4V57.7z"/>
				<path fill="#FFFFFF" d="M723.9,48.7h11.4v74.9h-11.4V48.7z"/>
				<path fill="#FFFFFF" d="M757.1,48.7h14.8l7.2,29c1.5,6.4,2.3,12.3,3.1,17.4h0.4c0.8-5.1,1.5-11,3.1-17.4l7.4-29h14.5v74.9h-10.6
					V98.9c0-15.2,0.7-28.5,1.2-33.8h-0.8L785.9,114h-7.2l-11.4-48.9h-0.8c0.5,5.3,1.2,18.5,1.2,33.8v24.8h-10.6V48.7z"/>
				<path fill="#FFFFFF" d="M829.3,48.7H857v8.9h-16.4v22.4h12.7V89h-12.7v25.7h16.8v8.9h-28.2V48.7z"/>
				<path fill="#FFFFFF" d="M872.9,99.6h8.8v3.6c0,8.1,1.8,12.5,7.4,12.5c4.3,0,6.7-2.5,6.7-7c0-4.6-1.1-7.5-5.3-12.8l-11.8-14.1
					c-4.2-5.3-6.6-10.7-6.6-16.9c0-10,6.3-17,17.2-17c13.2,0,17.1,8.3,17.1,15.9c0,3.2-0.6,5.7-1.2,8.9h-8.8v-3.6
					c0-7.9-2.1-12.3-7.3-12.3c-4.3,0-6.4,2.6-6.4,6.5c0,4.3,1.4,6.5,3.5,9.4l13.2,16c4.8,6.3,7.5,11.7,7.5,18.2
					c0,10.6-6.9,17.3-17.8,17.3c-13.5,0-17.4-7.9-17.4-15.9C871.7,105.3,872.1,102.7,872.9,99.6z"/>
			</g>
			<g>
				<path fill="#FFFFFF" d="M442.4,5.7v1.9h-8.1v21.2h-2.2V7.6h-8V5.7H442.4z"/>
				<path fill="#FFFFFF" d="M450,5.7v10h13.7v-10h2.2v23.1h-2.2V17.6H450v11.2h-2.2V5.7H450z"/>
				<path fill="#FFFFFF" d="M489.7,5.7v1.9H476v8.3h12.9v1.9H476v9.1h13.9v1.9h-16.1V5.7H489.7z"/>
			</g>
			<g>
				<polygon fill="#FFFFFF" points="385.1,142.8 376.3,151.7 367.4,142.8 363.6,146.6 372.4,155.5 363.6,164.3 367.4,168.1 
					376.3,159.3 385.1,168.1 388.9,164.3 380.1,155.5 388.9,146.6 				">
					<animateMotion
						path="M0,0 L0,5,L0,0,0"
              			begin="0s" dur=".2s" repeatCount="indefinite"
					/>
				</polygon> 
				
				<polygon fill="#FFFFFF" points="425.9,142.8 417,151.6 408.1,142.8 404.3,146.6 413.2,155.5 404.3,164.3 408.1,168.1 417,159.3 
					425.9,168.1 429.7,164.3 420.8,155.5 429.7,146.6 				">
					<animateMotion
						path="M0,0 L0,8,L0,0,0"
              			begin="0.5s" dur="2s" repeatCount="indefinite"
					/>
				</polygon> 
				
				<polygon fill="#FFFFFF" points="466.6,143.9 457.8,152.8 448.9,143.9 445.1,147.8 454,156.6 445.1,165.5 448.9,169.3 
					457.8,160.4 466.6,169.3 470.4,165.5 461.6,156.6 470.4,147.8 				">
					<animateMotion
						path="M0,0 L0,5,L0,0,0"
              			begin="1.25s" dur="2.25s" repeatCount="indefinite"
					/>
				</polygon> 
				
				<polygon fill="#FFFFFF" points="505.9,143.4 497,152.2 488.1,143.4 484.3,147.2 493.2,156 484.3,164.9 488.1,168.7 497,159.8 
					505.9,168.7 509.7,164.9 500.8,156 509.7,147.2 				">
					<animateMotion
						path="M0,0 L0,8,L0,0,0"
              			begin="2s" dur="2s" repeatCount="indefinite"
					/>
				</polygon> 
				
				<polygon fill="#FFFFFF" points="550.4,147.2 546.6,143.4 537.7,152.2 528.9,143.4 525.1,147.2 533.9,156 525.1,164.9 
					528.9,168.7 537.7,159.8 546.6,168.7 550.4,164.9 541.6,156 				">
					<animateMotion
						path="M0,0 L0,5,L0,0,0"
              			begin="2.25s" dur="2.25s" repeatCount="indefinite"
					/>
				</polygon> 
				
				
			</g>
		</g>
	</g>
</g>
<g id="NAV" display="none">
</g>
<g id="NAV_copy">
</g>
</svg>
